<mxfile host="Electron" agent="Mozilla/5.0 (Windows NT 10.0; Win64; x64) AppleWebKit/537.36 (KHTML, like Gecko) draw.io/27.0.5 Chrome/134.0.6998.205 Electron/35.3.0 Safari/537.36" version="27.0.5">
  <diagram name="PÃ¡gina-1" id="X4VdbNFsGyIjqbWXqyM4">
    <mxGraphModel dx="690" dy="513" grid="1" gridSize="10" guides="1" tooltips="1" connect="1" arrows="1" fold="1" page="1" pageScale="1" pageWidth="827" pageHeight="1169" math="0" shadow="0">
      <root>
        <mxCell id="0" />
        <mxCell id="1" parent="0" />
        <mxCell id="GJnPJmMUFBzUPkyeDaMs-1" value="&amp;lt;&amp;lt;interface&amp;gt;&amp;gt;&lt;br&gt;&lt;b&gt;IShapeShifter&lt;/b&gt;&lt;div&gt;&lt;br/&gt;&lt;/div&gt;" style="swimlane;fontStyle=0;align=center;verticalAlign=top;childLayout=stackLayout;horizontal=1;startSize=55;horizontalStack=0;resizeParent=1;resizeParentMax=0;resizeLast=0;collapsible=0;marginBottom=0;html=1;whiteSpace=wrap;" vertex="1" parent="1">
          <mxGeometry x="50" y="40" width="290" height="140" as="geometry" />
        </mxCell>
        <mxCell id="GJnPJmMUFBzUPkyeDaMs-6" value="" style="line;strokeWidth=1;fillColor=none;align=left;verticalAlign=middle;spacingTop=-1;spacingLeft=3;spacingRight=3;rotatable=0;labelPosition=right;points=[];portConstraint=eastwest;" vertex="1" parent="GJnPJmMUFBzUPkyeDaMs-1">
          <mxGeometry y="55" width="290" height="8" as="geometry" />
        </mxCell>
        <mxCell id="GJnPJmMUFBzUPkyeDaMs-8" value="+compose(IShapeShifter): IShapeShifter&lt;div&gt;+deepest():&amp;nbsp;int&lt;/div&gt;&lt;div&gt;+flat(): IShapeShifter&lt;/div&gt;&lt;div&gt;+values(): Integer[]&lt;br&gt;&lt;div&gt;&lt;div&gt;&lt;br&gt;&lt;/div&gt;&lt;/div&gt;&lt;/div&gt;" style="text;html=1;strokeColor=none;fillColor=none;align=left;verticalAlign=middle;spacingLeft=4;spacingRight=4;overflow=hidden;rotatable=0;points=[[0,0.5],[1,0.5]];portConstraint=eastwest;whiteSpace=wrap;" vertex="1" parent="GJnPJmMUFBzUPkyeDaMs-1">
          <mxGeometry y="63" width="290" height="77" as="geometry" />
        </mxCell>
        <mxCell id="GJnPJmMUFBzUPkyeDaMs-9" value="&lt;br&gt;&lt;b&gt;ShapeShifter&lt;/b&gt;" style="swimlane;fontStyle=0;align=center;verticalAlign=top;childLayout=stackLayout;horizontal=1;startSize=55;horizontalStack=0;resizeParent=1;resizeParentMax=0;resizeLast=0;collapsible=0;marginBottom=0;html=1;whiteSpace=wrap;" vertex="1" parent="1">
          <mxGeometry x="210" y="230" width="320" height="155" as="geometry" />
        </mxCell>
        <mxCell id="GJnPJmMUFBzUPkyeDaMs-13" value="&lt;div&gt;&lt;br&gt;&lt;/div&gt;" style="text;html=1;strokeColor=none;fillColor=none;align=left;verticalAlign=middle;spacingLeft=4;spacingRight=4;overflow=hidden;rotatable=0;points=[[0,0.5],[1,0.5]];portConstraint=eastwest;whiteSpace=wrap;" vertex="1" parent="GJnPJmMUFBzUPkyeDaMs-9">
          <mxGeometry y="55" width="320" height="20" as="geometry" />
        </mxCell>
        <mxCell id="GJnPJmMUFBzUPkyeDaMs-14" value="" style="line;strokeWidth=1;fillColor=none;align=left;verticalAlign=middle;spacingTop=-1;spacingLeft=3;spacingRight=3;rotatable=0;labelPosition=right;points=[];portConstraint=eastwest;" vertex="1" parent="GJnPJmMUFBzUPkyeDaMs-9">
          <mxGeometry y="75" width="320" height="8" as="geometry" />
        </mxCell>
        <mxCell id="GJnPJmMUFBzUPkyeDaMs-16" value="&lt;i&gt;+compose(ShapeShifter): ShapeShifter&lt;/i&gt;&lt;div&gt;&lt;i&gt;+deepest():&amp;nbsp;int&lt;/i&gt;&lt;/div&gt;&lt;div&gt;&lt;i&gt;+flat(): ShapeShifter&lt;/i&gt;&lt;/div&gt;&lt;div&gt;&lt;i&gt;+values(): Integer[]&lt;/i&gt;&lt;/div&gt;" style="text;html=1;strokeColor=none;fillColor=none;align=left;verticalAlign=middle;spacingLeft=4;spacingRight=4;overflow=hidden;rotatable=0;points=[[0,0.5],[1,0.5]];portConstraint=eastwest;whiteSpace=wrap;" vertex="1" parent="GJnPJmMUFBzUPkyeDaMs-9">
          <mxGeometry y="83" width="320" height="72" as="geometry" />
        </mxCell>
        <mxCell id="GJnPJmMUFBzUPkyeDaMs-17" style="edgeStyle=orthogonalEdgeStyle;rounded=0;orthogonalLoop=1;jettySize=auto;html=1;exitX=0.5;exitY=0;exitDx=0;exitDy=0;entryX=1.007;entryY=0.364;entryDx=0;entryDy=0;entryPerimeter=0;endArrow=block;endFill=0;endSize=15;dashed=1;dashPattern=8 8;" edge="1" parent="1" source="GJnPJmMUFBzUPkyeDaMs-9" target="GJnPJmMUFBzUPkyeDaMs-8">
          <mxGeometry relative="1" as="geometry" />
        </mxCell>
        <mxCell id="GJnPJmMUFBzUPkyeDaMs-18" value="&lt;br&gt;&lt;b&gt;Composed&lt;/b&gt;" style="swimlane;fontStyle=0;align=center;verticalAlign=top;childLayout=stackLayout;horizontal=1;startSize=55;horizontalStack=0;resizeParent=1;resizeParentMax=0;resizeLast=0;collapsible=0;marginBottom=0;html=1;whiteSpace=wrap;" vertex="1" parent="1">
          <mxGeometry x="410" y="430" width="280" height="135" as="geometry" />
        </mxCell>
        <mxCell id="GJnPJmMUFBzUPkyeDaMs-20" value="" style="line;strokeWidth=1;fillColor=none;align=left;verticalAlign=middle;spacingTop=-1;spacingLeft=3;spacingRight=3;rotatable=0;labelPosition=right;points=[];portConstraint=eastwest;" vertex="1" parent="GJnPJmMUFBzUPkyeDaMs-18">
          <mxGeometry y="55" width="280" height="8" as="geometry" />
        </mxCell>
        <mxCell id="GJnPJmMUFBzUPkyeDaMs-21" value="+compose(ShapeShifter): ShapeShifter&lt;div&gt;+deepest():&amp;nbsp;int&lt;/div&gt;&lt;div&gt;+flat(): ShapeShifter&lt;/div&gt;&lt;div&gt;+values(): Integer[]&lt;/div&gt;" style="text;html=1;strokeColor=none;fillColor=none;align=left;verticalAlign=middle;spacingLeft=4;spacingRight=4;overflow=hidden;rotatable=0;points=[[0,0.5],[1,0.5]];portConstraint=eastwest;whiteSpace=wrap;" vertex="1" parent="GJnPJmMUFBzUPkyeDaMs-18">
          <mxGeometry y="63" width="280" height="72" as="geometry" />
        </mxCell>
        <mxCell id="GJnPJmMUFBzUPkyeDaMs-22" style="edgeStyle=orthogonalEdgeStyle;rounded=0;orthogonalLoop=1;jettySize=auto;html=1;exitX=1;exitY=0.5;exitDx=0;exitDy=0;entryX=1;entryY=0.25;entryDx=0;entryDy=0;" edge="1" parent="1" source="GJnPJmMUFBzUPkyeDaMs-21" target="GJnPJmMUFBzUPkyeDaMs-9">
          <mxGeometry relative="1" as="geometry" />
        </mxCell>
        <mxCell id="GJnPJmMUFBzUPkyeDaMs-23" value="*" style="text;html=1;align=center;verticalAlign=middle;resizable=0;points=[];autosize=1;strokeColor=none;fillColor=none;" vertex="1" parent="1">
          <mxGeometry x="540" y="238" width="30" height="30" as="geometry" />
        </mxCell>
        <mxCell id="GJnPJmMUFBzUPkyeDaMs-24" value="components" style="text;html=1;align=center;verticalAlign=middle;resizable=0;points=[];autosize=1;strokeColor=none;fillColor=none;" vertex="1" parent="1">
          <mxGeometry x="610" y="238" width="90" height="30" as="geometry" />
        </mxCell>
        <mxCell id="GJnPJmMUFBzUPkyeDaMs-25" style="edgeStyle=orthogonalEdgeStyle;rounded=0;orthogonalLoop=1;jettySize=auto;html=1;exitX=0.5;exitY=0;exitDx=0;exitDy=0;endSize=15;endArrow=block;endFill=0;" edge="1" parent="1" source="GJnPJmMUFBzUPkyeDaMs-18" target="GJnPJmMUFBzUPkyeDaMs-16">
          <mxGeometry relative="1" as="geometry" />
        </mxCell>
        <mxCell id="GJnPJmMUFBzUPkyeDaMs-29" style="edgeStyle=orthogonalEdgeStyle;rounded=0;orthogonalLoop=1;jettySize=auto;html=1;exitX=0.5;exitY=0;exitDx=0;exitDy=0;endSize=15;endArrow=block;endFill=0;entryX=0;entryY=0.5;entryDx=0;entryDy=0;" edge="1" parent="1" target="GJnPJmMUFBzUPkyeDaMs-16">
          <mxGeometry relative="1" as="geometry">
            <mxPoint x="360" y="390" as="targetPoint" />
            <mxPoint x="220" y="430" as="sourcePoint" />
          </mxGeometry>
        </mxCell>
        <mxCell id="GJnPJmMUFBzUPkyeDaMs-33" value="&lt;br&gt;&lt;b&gt;Simple&lt;/b&gt;" style="swimlane;fontStyle=0;align=center;verticalAlign=top;childLayout=stackLayout;horizontal=1;startSize=55;horizontalStack=0;resizeParent=1;resizeParentMax=0;resizeLast=0;collapsible=0;marginBottom=0;html=1;whiteSpace=wrap;" vertex="1" parent="1">
          <mxGeometry x="70" y="430" width="320" height="155" as="geometry" />
        </mxCell>
        <mxCell id="GJnPJmMUFBzUPkyeDaMs-34" value="-integer: Integer" style="text;html=1;strokeColor=none;fillColor=none;align=left;verticalAlign=middle;spacingLeft=4;spacingRight=4;overflow=hidden;rotatable=0;points=[[0,0.5],[1,0.5]];portConstraint=eastwest;whiteSpace=wrap;" vertex="1" parent="GJnPJmMUFBzUPkyeDaMs-33">
          <mxGeometry y="55" width="320" height="20" as="geometry" />
        </mxCell>
        <mxCell id="GJnPJmMUFBzUPkyeDaMs-35" value="" style="line;strokeWidth=1;fillColor=none;align=left;verticalAlign=middle;spacingTop=-1;spacingLeft=3;spacingRight=3;rotatable=0;labelPosition=right;points=[];portConstraint=eastwest;" vertex="1" parent="GJnPJmMUFBzUPkyeDaMs-33">
          <mxGeometry y="75" width="320" height="8" as="geometry" />
        </mxCell>
        <mxCell id="GJnPJmMUFBzUPkyeDaMs-36" value="&lt;i&gt;+compose(ShapeShifter): ShapeShifter&lt;/i&gt;&lt;div&gt;&lt;i&gt;+deepest():&amp;nbsp;int&lt;/i&gt;&lt;/div&gt;&lt;div&gt;&lt;i&gt;+flat(): ShapeShifter&lt;/i&gt;&lt;/div&gt;&lt;div&gt;&lt;i&gt;+values(): Integer[]&lt;/i&gt;&lt;/div&gt;" style="text;html=1;strokeColor=none;fillColor=none;align=left;verticalAlign=middle;spacingLeft=4;spacingRight=4;overflow=hidden;rotatable=0;points=[[0,0.5],[1,0.5]];portConstraint=eastwest;whiteSpace=wrap;" vertex="1" parent="GJnPJmMUFBzUPkyeDaMs-33">
          <mxGeometry y="83" width="320" height="72" as="geometry" />
        </mxCell>
      </root>
    </mxGraphModel>
  </diagram>
</mxfile>
